<svg width="24" height="24" viewBox="0 0 24 24" fill="none" xmlns="http://www.w3.org/2000/svg">
<g id="Iconly/Bulk/Message">
<g id="Group">
<path id="Fill 1" opacity="0.4" d="M21.9999 15.9402C21.9999 18.7302 19.7599 20.9902 16.9699 21.0002H16.9599H7.04988C4.26988 21.0002 1.99988 18.7502 1.99988 15.9602V15.9502C1.99988 15.9502 2.00588 11.5242 2.01388 9.29824C2.01488 8.88024 2.49488 8.64624 2.82188 8.90624C5.19788 10.7912 9.44688 14.2282 9.49988 14.2732C10.2099 14.8422 11.1099 15.1632 12.0299 15.1632C12.9499 15.1632 13.8499 14.8422 14.5599 14.2622C14.6129 14.2272 18.7669 10.8932 21.1789 8.97724C21.5069 8.71624 21.9889 8.95024 21.9899 9.36724C21.9999 11.5762 21.9999 15.9402 21.9999 15.9402Z" fill="#FB8F2C"/>
<path id="Fill 4" d="M21.973 4.674C21.107 3.042 19.403 2 17.527 2H7.54695C5.67095 2 3.96695 3.042 3.10095 4.674C2.90695 5.039 2.99895 5.494 3.32195 5.752L10.747 11.691C11.267 12.111 11.897 12.32 12.527 12.32C12.531 12.32 12.534 12.32 12.537 12.32C12.54 12.32 12.544 12.32 12.547 12.32C13.177 12.32 13.807 12.111 14.327 11.691L21.752 5.752C22.075 5.494 22.167 5.039 21.973 4.674Z" fill="#FB8F2C"/>
</g>
</g>
</svg>
